<svg xmlns="http://www.w3.org/2000/svg" xmlns:xlink="http://www.w3.org/1999/xlink" width="500" zoomAndPan="magnify" viewBox="0 0 375 374.999991" height="500" preserveAspectRatio="xMidYMid meet" version="1.0"><defs><clipPath id="id1"><path d="M 4.488281 160.910156 L 59.988281 160.910156 L 59.988281 216.410156 L 4.488281 216.410156 Z M 4.488281 160.910156 " clip-rule="nonzero"/></clipPath><clipPath id="id2"><path d="M 315.386719 160.910156 L 370.886719 160.910156 L 370.886719 216.410156 L 315.386719 216.410156 Z M 315.386719 160.910156 " clip-rule="nonzero"/></clipPath><clipPath id="id3"><path d="M 159.9375 10.507812 L 215.4375 10.507812 L 215.4375 66.007812 L 159.9375 66.007812 Z M 159.9375 10.507812 " clip-rule="nonzero"/></clipPath><clipPath id="id4"><path d="M 19.230469 27.949219 L 355.980469 27.949219 L 355.980469 195.949219 L 19.230469 195.949219 Z M 19.230469 27.949219 " clip-rule="nonzero"/></clipPath><clipPath id="id5"><path d="M 66.570312 75.289062 L 308.070312 75.289062 L 308.070312 316.789062 L 66.570312 316.789062 Z M 66.570312 75.289062 " clip-rule="nonzero"/></clipPath><clipPath id="id6"><path d="M 19.230469 27.738281 L 187.230469 27.738281 L 187.230469 364.488281 L 19.230469 364.488281 Z M 19.230469 27.738281 " clip-rule="nonzero"/></clipPath><clipPath id="id7"><path d="M 318.863281 164.386719 L 366.863281 164.386719 L 366.863281 212.386719 L 318.863281 212.386719 Z M 318.863281 164.386719 " clip-rule="nonzero"/></clipPath><clipPath id="id8"><path d="M 163.417969 13.988281 L 211.417969 13.988281 L 211.417969 61.988281 L 163.417969 61.988281 Z M 163.417969 13.988281 " clip-rule="nonzero"/></clipPath><clipPath id="id9"><path d="M 7.96875 164.386719 L 55.96875 164.386719 L 55.96875 212.386719 L 7.96875 212.386719 Z M 7.96875 164.386719 " clip-rule="nonzero"/></clipPath></defs><g clip-path="url(#id1)"><path fill="#000000" d="M 32.238281 160.910156 C 16.910156 160.910156 4.488281 173.332031 4.488281 188.660156 C 4.488281 203.984375 16.910156 216.410156 32.238281 216.410156 C 47.5625 216.410156 59.988281 203.984375 59.988281 188.660156 C 59.988281 173.332031 47.5625 160.910156 32.238281 160.910156 " fill-opacity="1" fill-rule="nonzero"/></g><g clip-path="url(#id2)"><path fill="#000000" d="M 343.136719 160.910156 C 327.808594 160.910156 315.386719 173.332031 315.386719 188.660156 C 315.386719 203.984375 327.808594 216.410156 343.136719 216.410156 C 358.460938 216.410156 370.886719 203.984375 370.886719 188.660156 C 370.886719 173.332031 358.460938 160.910156 343.136719 160.910156 " fill-opacity="1" fill-rule="nonzero"/></g><g clip-path="url(#id3)"><path fill="#000000" d="M 187.6875 10.507812 C 172.359375 10.507812 159.9375 22.933594 159.9375 38.257812 C 159.9375 53.585938 172.359375 66.007812 187.6875 66.007812 C 203.011719 66.007812 215.4375 53.585938 215.4375 38.257812 C 215.4375 22.933594 203.011719 10.507812 187.6875 10.507812 " fill-opacity="1" fill-rule="nonzero"/></g><g clip-path="url(#id4)"><path fill="#ffffff" d="M 355.976562 195.949219 L 337.875 195.949219 C 337.875 113.273438 270.460938 46.011719 187.605469 46.011719 C 104.742188 46.011719 37.328125 113.273438 37.328125 195.949219 L 19.226562 195.949219 C 19.226562 103.3125 94.761719 27.949219 187.601562 27.949219 C 280.445312 27.949219 355.976562 103.3125 355.976562 195.949219 Z M 355.976562 195.949219 " fill-opacity="1" fill-rule="nonzero"/></g><g clip-path="url(#id5)"><path fill="#ffffff" d="M 187.320312 316.789062 C 120.757812 316.789062 66.570312 262.601562 66.570312 196.039062 C 66.570312 129.480469 120.757812 75.289062 187.320312 75.289062 C 253.878906 75.289062 308.070312 129.480469 308.070312 196.039062 C 308.070312 262.601562 253.878906 316.789062 187.320312 316.789062 Z M 187.320312 77.074219 C 121.710938 77.074219 68.355469 130.429688 68.355469 196.039062 C 68.355469 261.648438 121.710938 315.003906 187.320312 315.003906 C 252.929688 315.003906 306.285156 261.648438 306.285156 196.039062 C 306.285156 130.429688 252.929688 77.074219 187.320312 77.074219 Z M 187.320312 77.074219 " fill-opacity="1" fill-rule="nonzero"/></g><g clip-path="url(#id6)"><path fill="#ffffff" d="M 187.226562 27.742188 L 187.226562 45.84375 C 104.550781 45.84375 37.289062 113.257812 37.289062 196.113281 C 37.289062 278.976562 104.550781 346.390625 187.226562 346.390625 L 187.226562 364.492188 C 94.59375 364.492188 19.230469 288.957031 19.230469 196.117188 C 19.230469 103.273438 94.59375 27.742188 187.226562 27.742188 Z M 187.226562 27.742188 " fill-opacity="1" fill-rule="nonzero"/></g><g clip-path="url(#id7)"><path fill="#ffffff" d="M 342.863281 164.386719 C 329.609375 164.386719 318.863281 175.132812 318.863281 188.386719 C 318.863281 201.644531 329.609375 212.386719 342.863281 212.386719 C 356.121094 212.386719 366.863281 201.644531 366.863281 188.386719 C 366.863281 175.132812 356.121094 164.386719 342.863281 164.386719 " fill-opacity="1" fill-rule="nonzero"/></g><g clip-path="url(#id8)"><path fill="#ffffff" d="M 187.417969 13.988281 C 174.160156 13.988281 163.417969 24.734375 163.417969 37.988281 C 163.417969 51.242188 174.160156 61.988281 187.417969 61.988281 C 200.671875 61.988281 211.417969 51.242188 211.417969 37.988281 C 211.417969 24.734375 200.671875 13.988281 187.417969 13.988281 " fill-opacity="1" fill-rule="nonzero"/></g><g clip-path="url(#id9)"><path fill="#ffffff" d="M 31.96875 164.386719 C 18.710938 164.386719 7.96875 175.132812 7.96875 188.386719 C 7.96875 201.644531 18.710938 212.386719 31.96875 212.386719 C 45.222656 212.386719 55.96875 201.644531 55.96875 188.386719 C 55.96875 175.132812 45.222656 164.386719 31.96875 164.386719 " fill-opacity="1" fill-rule="nonzero"/></g></svg>